HIERARCHY
ROOT SpineBase
{
  OFFSET 0.000000 0.000000 0.000000
  CHANNELS 6 Xposition Yposition Zposition Zrotation Xrotation Yrotation
  JOINT SpineMid
  {
    OFFSET -0.000000 32.445731 0.000000
    CHANNELS 3 Zrotation Xrotation Yrotation
    JOINT SpineShoulder
    {
      OFFSET -0.254117 24.117436 -0.867470
      CHANNELS 3 Zrotation Xrotation Yrotation
      JOINT Neck
      {
        OFFSET -0.174862 7.967061 -0.595884
        CHANNELS 3 Zrotation Xrotation Yrotation
        JOINT Head
        {
          OFFSET -3.278301 12.008704 3.112073
          CHANNELS 3 Zrotation Xrotation Yrotation
          End Site
          {
            OFFSET 0 0 0
          }
        }
      }
      JOINT ShoulderLeft
      {
        OFFSET -8.158923 -7.343133 9.564876
        CHANNELS 3 Zrotation Xrotation Yrotation
        JOINT ElbowLeft
        {
          OFFSET -2.282207 -24.262331 5.620823
          CHANNELS 3 Zrotation Xrotation Yrotation
          JOINT WristLeft
          {
            OFFSET 4.464193 -27.606917 9.966760
            CHANNELS 3 Zrotation Xrotation Yrotation
            JOINT HandLeft
            {
              OFFSET -0.165237 -4.971703 -0.000756
              CHANNELS 3 Zrotation Xrotation Yrotation
              JOINT HandTipLeft
              {
                OFFSET 0.006325 -4.287744 -0.354036
                CHANNELS 3 Zrotation Xrotation Yrotation
                End Site
                {
                  OFFSET 0 0 0
                }
              }
              JOINT ThumbLeft
              {
                OFFSET 0.308255 -2.451590 -4.824230
                CHANNELS 3 Zrotation Xrotation Yrotation
                End Site
                {
                  OFFSET 0 0 0
                }
              }
            }
          }
        }
      }
      JOINT ShoulderRight
      {
        OFFSET 1.029662 -3.632005 -14.638917
        CHANNELS 3 Zrotation Xrotation Yrotation
        JOINT ElbowRight
        {
          OFFSET 2.441204 -24.123626 -7.054400
          CHANNELS 3 Zrotation Xrotation Yrotation
          JOINT WristRight
          {
            OFFSET -6.593171 -28.677593 -1.203560
            CHANNELS 3 Zrotation Xrotation Yrotation
            JOINT HandRight
            {
              OFFSET 0.195680 -6.926297 2.597830
              CHANNELS 3 Zrotation Xrotation Yrotation
              JOINT HandTipRight
              {
                OFFSET -1.731231 -8.231865 1.771855
                CHANNELS 3 Zrotation Xrotation Yrotation
                End Site
                {
                  OFFSET 0 0 0
                }
              }
              JOINT ThumbRight
              {
                OFFSET -8.464349 2.483775 -2.404106
                CHANNELS 3 Zrotation Xrotation Yrotation
                End Site
                {
                  OFFSET 0 0 0
                }
              }
            }
          }
        }
      }
    }
  }
  JOINT HipLeft
  {
    OFFSET -3.848514 1.021168 1.980974
    CHANNELS 3 Zrotation Xrotation Yrotation
    JOINT KneeLeft
    {
      OFFSET 5.802023 -32.637562 11.394088
      CHANNELS 3 Zrotation Xrotation Yrotation
      JOINT AnkleLeft
      {
        OFFSET 12.587718 -37.241159 -2.770153
        CHANNELS 3 Zrotation Xrotation Yrotation
        JOINT FootLeft
        {
          OFFSET -3.217620 -4.432308 -13.583579
          CHANNELS 3 Zrotation Xrotation Yrotation
          End Site
          {
            OFFSET 0 0 0
          }
        }
      }
    }
  }
  JOINT HipRight
  {
    OFFSET 1.243742 1.489928 -8.840703
    CHANNELS 3 Zrotation Xrotation Yrotation
    JOINT KneeRight
    {
      OFFSET 5.570955 -33.057828 -4.044063
      CHANNELS 3 Zrotation Xrotation Yrotation
      JOINT AnkleRight
      {
        OFFSET 7.805116 -34.893426 1.133622
        CHANNELS 3 Zrotation Xrotation Yrotation
        JOINT FootRight
        {
          OFFSET -4.788559 -7.710608 -2.437083
          CHANNELS 3 Zrotation Xrotation Yrotation
          End Site
          {
            OFFSET 0 0 0
          }
        }
      }
    }
  }
}
MOTION
Frames: 14
Frame Time: 0.033333
101.507733 77.459390 278.580122 -0.765919 -0.366009 66.920464 0.636963 -0.561139 -66.919791 -0.000000 0.000000 0.000000 -0.000000 0.000000 0.000000 0.000000 0.000000 0.000000 -0.595297 1.408586 -0.263720 -1.247125 2.771359 0.317624 -0.235913 -4.960715 -0.088933 8.347525 -2.750564 -0.457750 0.000000 0.000000 0.000000 0.000000 0.000000 0.000000 -0.000000 0.000000 0.000000 -0.313949 2.268537 -0.501492 -2.396424 3.373884 -0.321604 -0.692563 -3.780574 -0.418032 0.000000 0.000000 0.000000 0.000000 0.000000 0.000000 1.509024 -0.810787 -66.584195 -0.188379 -4.721097 -1.701304 4.339526 -20.307612 19.101129 0.000000 0.000000 0.000000 0.836198 -1.480501 -67.058954 -0.924301 0.174867 0.144123 -6.252538 0.102452 1.856501 0.000000 0.000000 0.000000
101.509521 77.460095 278.538676 -0.729654 -0.323968 66.633647 0.586789 -0.541326 -66.632938 -0.000000 0.000000 0.000000 -0.000000 0.000000 0.000000 0.000000 0.000000 0.000000 -0.000000 0.000000 0.000000 -2.429503 6.121998 0.249269 -1.041148 -6.299148 -0.357726 7.517887 -2.272197 -0.278817 0.000000 0.000000 0.000000 0.000000 0.000000 0.000000 -0.000000 0.000000 0.000000 -0.349412 2.086737 -0.458106 -2.070058 4.165130 -0.217643 -3.750887 -3.318328 -1.597365 0.000000 0.000000 0.000000 0.000000 0.000000 0.000000 1.373216 -0.816339 -66.317347 -0.397585 -4.442913 -1.614232 4.476197 -19.657305 16.166600 0.000000 0.000000 0.000000 0.837373 -1.457074 -66.765849 -0.940326 0.130982 0.138356 -7.320750 0.305411 2.062951 0.000000 0.000000 0.000000
101.588934 77.449427 278.358183 -0.644629 -0.186266 65.717985 0.434882 -0.511002 -65.717093 -0.000000 0.000000 0.000000 -0.395315 -0.775123 -0.112136 0.000000 0.000000 0.000000 0.498839 -1.015821 0.215189 -3.218514 8.039164 0.162625 -2.771432 -5.946425 -0.641249 10.964658 -0.317310 -0.304438 0.000000 0.000000 0.000000 0.000000 0.000000 0.000000 0.740497 0.652039 -0.154416 -1.113282 1.222644 -0.267749 -2.428656 5.793142 -0.318835 -5.433685 -3.543329 -2.420246 0.000000 0.000000 0.000000 0.000000 0.000000 0.000000 0.434882 -0.511002 -65.717093 0.018600 -3.713069 -1.259174 2.829022 -14.185944 12.403322 0.000000 0.000000 0.000000 0.581184 -1.337217 -65.848886 -0.813755 0.204538 0.135605 -8.109303 0.525818 2.178756 0.000000 0.000000 0.000000
101.737544 77.450010 278.058614 -0.540994 0.005387 64.321537 0.229575 -0.489898 -64.320530 -0.000000 0.000000 0.000000 -1.606709 -2.098537 -0.187581 0.000000 0.000000 0.000000 0.673030 -1.180695 0.273419 -3.455998 8.259397 0.106627 -4.504956 -4.360432 -0.779142 11.282268 0.093689 0.018782 0.000000 0.000000 0.000000 0.000000 0.000000 0.000000 0.647695 0.744246 -0.118005 -1.336886 1.039135 -0.269659 -2.896803 7.516393 -0.520336 -4.685170 -5.280570 -2.300222 0.000000 0.000000 0.000000 0.000000 0.000000 0.000000 0.229575 -0.489898 -64.320530 -0.058671 -3.889447 -1.316282 -0.017008 -9.959033 18.705590 0.000000 0.000000 0.000000 0.229575 -0.489898 -64.320530 -0.000000 0.000000 0.000000 -8.519935 0.433854 2.348921 0.000000 0.000000 0.000000
101.939979 77.459008 277.674047 -0.429269 0.230967 62.422808 -0.005995 -0.487423 -62.421968 -0.000000 0.000000 0.000000 -3.320272 -3.823781 -0.299385 0.000000 0.000000 0.000000 -0.000000 0.000000 0.000000 -2.461323 5.825529 0.183359 -6.360996 -1.722138 -0.648770 12.033254 1.192659 0.265136 0.000000 0.000000 0.000000 0.000000 0.000000 0.000000 -0.000000 0.000000 0.000000 -1.191117 1.814105 -0.347198 -2.936637 9.425487 -0.585021 -5.330105 -7.134146 -2.767129 0.000000 0.000000 0.000000 0.000000 0.000000 0.000000 -1.041017 -1.044253 -62.638897 -0.014036 -3.073483 -1.236492 -4.699859 -7.025529 32.191103 0.000000 0.000000 0.000000 -0.005995 -0.487423 -62.421968 -0.722307 -0.433927 -0.123424 -8.226416 0.568512 2.803939 0.000000 0.000000 0.000000
102.174935 77.476805 277.243963 -0.334085 0.469098 60.357594 -0.242473 -0.522371 -60.357332 -0.000000 0.000000 0.000000 -5.338073 -5.784986 -0.478498 0.000000 0.000000 0.000000 -0.000000 0.000000 0.000000 -2.793058 4.841920 -0.109114 -6.432529 0.175416 -0.196260 14.653064 1.109937 0.310014 0.000000 0.000000 0.000000 0.000000 0.000000 0.000000 -0.000000 0.000000 0.000000 -1.783438 1.910138 -0.333180 -3.303718 10.566066 -0.802960 -4.261049 -7.888659 -2.521486 0.000000 0.000000 0.000000 0.000000 0.000000 0.000000 -2.053399 -1.251013 -60.818280 0.472049 -2.919331 -1.230209 -7.997014 -2.651936 35.366673 0.000000 0.000000 0.000000 -1.377320 -0.850516 -60.531002 -0.576972 0.697980 0.042776 -7.551144 0.191850 2.858345 0.000000 0.000000 0.000000
102.424029 77.490818 276.801475 -0.259899 0.678779 58.396377 -0.441922 -0.577058 -58.397063 -0.000000 0.000000 0.000000 -7.339780 -7.651177 -0.703071 0.000000 0.000000 0.000000 -0.000000 0.000000 0.000000 -3.329246 3.466459 -0.549368 -6.229097 1.957348 0.446329 14.675051 -0.250981 0.472288 0.000000 0.000000 0.000000 0.000000 0.000000 0.000000 -0.000000 0.000000 0.000000 -2.379977 2.060330 -0.329212 -3.534125 11.643310 -0.955237 -3.562563 -9.551750 -2.293023 0.000000 0.000000 0.000000 0.000000 0.000000 0.000000 -2.951046 -1.458640 -59.095666 0.952261 -2.559310 -1.137318 -8.054698 -4.594023 39.483767 0.000000 0.000000 0.000000 -2.318873 -0.993868 -58.652839 -0.456250 1.441897 0.132100 -5.599827 -0.296925 2.557864 0.000000 0.000000 0.000000
102.623420 77.468906 276.395173 -0.259853 0.845217 56.551716 0.005801 0.023726 -56.550731 0.276467 -0.863131 0.002931 -9.189962 -9.224775 -0.919425 0.000000 0.000000 0.000000 -0.000000 0.000000 0.000000 -4.078887 1.457191 -1.198012 -8.081410 4.448130 1.427050 14.739277 -1.911284 0.806064 0.000000 0.000000 0.000000 0.000000 0.000000 0.000000 -0.000000 0.000000 0.000000 -2.556202 2.117558 -0.330396 -4.028405 11.264795 -1.185930 -1.158487 -9.697938 -1.150169 0.000000 0.000000 0.000000 0.000000 0.000000 0.000000 -3.579604 -1.803870 -57.422826 1.266511 -2.038206 -1.017408 -6.497726 -5.158973 35.148273 0.000000 0.000000 0.000000 -3.147643 -1.223566 -56.892234 -0.280926 2.076085 0.199396 -5.182690 -0.230776 2.455928 0.000000 0.000000 0.000000
102.754738 77.445657 276.087027 -0.332144 0.949314 55.404956 0.004503 0.021813 -55.404614 0.347585 -0.965392 0.005256 -10.604880 -10.221399 -1.043426 0.000000 0.000000 0.000000 -0.000000 0.000000 0.000000 -6.341759 1.616935 -1.968269 -8.370874 3.138707 2.195507 14.080035 -1.566195 0.821850 0.000000 0.000000 0.000000 0.000000 0.000000 0.000000 -0.000000 0.000000 0.000000 -2.758736 2.509736 -0.398280 -4.363964 9.791363 -1.404364 4.048150 -9.221236 1.183112 0.000000 0.000000 0.000000 0.000000 0.000000 0.000000 -3.984143 -2.060061 -56.417882 1.561925 -1.707030 -0.930397 -6.108354 -2.397601 28.357165 0.000000 0.000000 0.000000 -3.732807 -1.366472 -55.794416 0.036272 2.352793 0.189374 -4.984384 0.274952 2.272905 0.000000 0.000000 0.000000
102.791718 77.433233 275.905825 -0.476593 0.988219 54.865775 0.027657 0.005720 -54.867515 0.112839 -0.169471 -0.001300 -11.127978 -11.402924 -1.194087 0.000000 0.000000 0.000000 0.352623 -0.844604 0.010429 -8.505751 1.111702 -2.857777 -9.712015 3.679514 3.298672 14.692771 -3.039006 1.037455 0.000000 0.000000 0.000000 0.000000 0.000000 0.000000 1.223781 -1.407754 -0.284329 -3.591348 3.374905 -0.125356 -4.364660 7.510581 -1.518007 8.171465 -7.074247 2.736787 0.000000 0.000000 0.000000 0.000000 0.000000 0.000000 -4.068704 -2.242056 -55.943476 1.720072 -1.483534 -0.859993 -4.241631 -4.296454 24.844633 0.000000 0.000000 0.000000 -4.029193 -1.603518 -55.309545 0.159632 2.556376 0.196036 -4.624338 0.608252 2.098154 0.000000 0.000000 0.000000
102.708640 77.428179 275.869029 -0.700061 0.954895 54.375959 0.078042 -0.027523 -54.381433 0.097086 -0.120191 -0.008206 -11.240965 -11.284408 -1.076749 0.000000 0.000000 0.000000 0.535457 -0.881904 0.024797 -10.762514 0.822544 -3.752054 -10.983526 4.921566 4.549390 13.368970 -5.404650 1.256957 0.000000 0.000000 0.000000 0.000000 0.000000 0.000000 1.788607 -1.709890 -0.397410 -3.577397 3.888450 -0.056132 -4.192355 5.424867 -1.427307 11.203659 -4.901963 3.558180 0.000000 0.000000 0.000000 0.000000 0.000000 0.000000 -3.812492 -2.505073 -55.421972 1.691222 -1.388766 -0.861290 -3.777809 -4.369426 22.775661 0.000000 0.000000 0.000000 -3.855348 -1.781948 -54.823694 0.240481 2.349458 0.144847 -4.419950 0.915503 2.008003 0.000000 0.000000 0.000000
102.667980 77.442815 275.803641 -0.816021 1.023195 54.013962 0.084811 -0.046349 -54.020562 0.062180 -0.085204 -0.013294 -10.800018 -10.806557 -0.907474 0.000000 0.000000 0.000000 0.666976 -0.979042 0.034070 -12.877229 0.969408 -4.496013 -11.317853 6.293176 5.687361 10.855489 -5.606874 1.485448 0.000000 0.000000 0.000000 0.000000 0.000000 0.000000 2.277409 -2.039435 -0.502240 -3.318376 4.352890 -0.018480 -4.015070 2.867398 -1.266932 13.620302 -0.198605 3.300063 0.000000 0.000000 0.000000 0.000000 0.000000 0.000000 -3.749634 -2.686119 -55.050778 1.679937 -1.328620 -0.853384 -1.254303 -7.243007 17.710311 0.000000 0.000000 0.000000 -3.858323 -1.859958 -54.453443 0.439029 2.158611 0.087374 -4.370222 1.183052 1.945936 0.000000 0.000000 0.000000
102.637636 77.466821 275.757850 -0.898624 1.081469 53.812265 0.109413 -0.063383 -53.818462 0.050037 -0.049710 -0.014661 -10.338116 -10.222884 -0.718819 0.000000 0.000000 0.000000 0.733392 -1.082234 0.037994 -14.724020 1.549995 -5.020518 -12.176408 7.621678 6.677363 8.833411 -5.951789 1.683122 0.000000 0.000000 0.000000 0.000000 0.000000 0.000000 2.623639 -1.949224 -0.552645 -2.668991 4.187872 -0.048946 -4.003607 3.944262 -0.806615 14.146203 -1.242772 3.469067 0.000000 0.000000 0.000000 0.000000 0.000000 0.000000 -3.758422 -2.762168 -54.867563 1.783666 -1.374030 -0.859954 -0.141670 -9.604507 17.125337 0.000000 0.000000 0.000000 -3.785676 -1.687382 -54.185458 0.890409 1.775828 -0.020753 -4.375792 1.405039 1.875980 0.000000 0.000000 0.000000
102.615461 77.524787 275.705919 -0.952805 1.163711 53.726366 0.126625 -0.100254 -53.730601 0.052175 -0.032023 -0.013653 -9.762781 -9.575699 -0.546091 0.000000 0.000000 0.000000 0.745461 -1.174057 0.037591 -15.559376 2.927869 -4.929882 -12.051524 7.948570 6.730429 6.850571 -7.025762 1.561015 0.000000 0.000000 0.000000 0.000000 0.000000 0.000000 2.501939 -1.886282 -0.501205 -1.724640 4.051431 -0.178889 -4.145442 5.636198 -0.429508 15.292974 -3.286386 4.163393 0.000000 0.000000 0.000000 0.000000 0.000000 0.000000 -3.843274 -2.812577 -54.814627 1.916647 -1.543170 -0.902937 -0.265365 -11.148808 21.372265 0.000000 0.000000 0.000000 -3.660602 -1.598144 -54.047511 1.099077 1.471154 -0.085780 -4.621933 1.071714 2.149970 0.000000 0.000000 0.000000
